<svg width="72" height="72" viewBox="0 0 72 72" fill="none" xmlns="http://www.w3.org/2000/svg">
<path d="M24 12H21.6C18.24 12 16.56 12 15.276 12.654C14.1471 13.2292 13.2292 14.1471 12.654 15.276C12 16.56 12 18.24 12 21.6V24M24 12H48M24 12V6M12 24V50.4C12 53.76 12 55.44 12.654 56.724C13.2292 57.8529 14.1471 58.7708 15.276 59.346C16.557 60 18.237 60 21.591 60H50.409C53.763 60 55.44 60 56.721 59.346C57.852 58.77 58.77 57.852 59.346 56.724C60 55.44 60 53.766 60 50.412V24M12 24H60M48 12H50.4C53.76 12 55.44 12 56.721 12.654C57.852 13.23 58.77 14.145 59.346 15.276C60 16.557 60 18.237 60 21.591V24M48 12V6M48 48H48.006V48.006H48V48ZM36 48H36.006V48.006H36V48ZM24 48H24.006V48.006H24V48ZM48.006 36V36.006H48V36H48.006ZM36 36H36.006V36.006H36V36ZM24 36H24.006V36.006H24V36Z" stroke="#21998F" stroke-width="5" stroke-linecap="round" stroke-linejoin="round"/>
</svg>
