<svg width="72" height="72" viewBox="0 0 72 72" fill="none" xmlns="http://www.w3.org/2000/svg">
<path d="M15.0002 29.769C15.0002 44.325 27.7322 56.361 33.3692 60.975C34.1792 61.635 34.5842 61.971 35.1872 62.139C35.6552 62.271 36.3452 62.271 36.8132 62.139C37.4162 61.971 37.8212 61.638 38.6312 60.975C44.2682 56.361 57.0002 44.325 57.0002 29.769C56.9951 27.0365 56.4491 24.332 55.3935 21.8116C54.338 19.2912 52.7939 17.0047 50.8502 15.084C46.8936 11.1811 41.5579 8.99514 36.0002 9.00001C30.4426 8.99514 25.1069 11.1811 21.1502 15.084C19.2039 17.0027 17.6581 19.2888 16.6023 21.8097C15.5466 24.3305 15.002 27.036 15.0002 29.769Z" stroke="#21998F" stroke-width="5" stroke-linecap="round" stroke-linejoin="round"/>
<path d="M29.9998 27.0001C29.9998 28.5914 30.6319 30.1175 31.7571 31.2427C32.8823 32.3679 34.4085 33.0001 35.9998 33.0001C37.5911 33.0001 39.1172 32.3679 40.2424 31.2427C41.3676 30.1175 41.9998 28.5914 41.9998 27.0001C41.9998 25.4088 41.3676 23.8827 40.2424 22.7575C39.1172 21.6322 37.5911 21.0001 35.9998 21.0001C34.4085 21.0001 32.8823 21.6322 31.7571 22.7575C30.6319 23.8827 29.9998 25.4088 29.9998 27.0001Z" stroke="#21998F" stroke-width="5" stroke-linecap="round" stroke-linejoin="round"/>
</svg>
