<svg width="22" height="32" viewBox="0 0 22 32" fill="none" xmlns="http://www.w3.org/2000/svg">
<path d="M1.66675 13.2307C1.66675 19.7 7.32541 25.0493 9.83075 27.1C10.1907 27.3933 10.3707 27.5427 10.6387 27.6173C10.8467 27.676 11.1534 27.676 11.3614 27.6173C11.6294 27.5427 11.8094 27.3947 12.1694 27.1C14.6747 25.0493 20.3334 19.7 20.3334 13.2307C20.3311 12.0162 20.0884 10.8142 19.6193 9.69405C19.1502 8.57386 18.4639 7.55764 17.6001 6.704C15.8416 4.96939 13.4702 3.99784 11.0001 4C8.53 3.99784 6.15861 4.96939 4.40008 6.704C3.53506 7.55675 2.84801 8.5728 2.37879 9.69319C1.90958 10.8136 1.66755 12.016 1.66675 13.2307Z" stroke="#21998F" stroke-width="2.66667" stroke-linecap="round" stroke-linejoin="round"/>
<path d="M8.33325 11.9999C8.33325 12.7072 8.6142 13.3854 9.1143 13.8855C9.6144 14.3856 10.2927 14.6666 10.9999 14.6666C11.7072 14.6666 12.3854 14.3856 12.8855 13.8855C13.3856 13.3854 13.6666 12.7072 13.6666 11.9999C13.6666 11.2927 13.3856 10.6144 12.8855 10.1143C12.3854 9.6142 11.7072 9.33325 10.9999 9.33325C10.2927 9.33325 9.6144 9.6142 9.1143 10.1143C8.6142 10.6144 8.33325 11.2927 8.33325 11.9999Z" stroke="#21998F" stroke-width="2.66667" stroke-linecap="round" stroke-linejoin="round"/>
</svg>
